<svg enable-background="new 0 0 1038.2 200" viewBox="0 0 1038.2 200" xmlns="http://www.w3.org/2000/svg"><g fill="#202632"><path d="m906.8 75.3c-9.5-11-23-17.1-38.1-17.1-29.6 0-51.9 23.4-51.9 54.5s22.3 54.5 51.9 54.5c15.6 0 29.8-6.7 39.2-18.3v16.9h15.7v-106.1h-16.8zm-35.5 75.5c-21.2 0-36.7-16-36.7-38.1s15.4-38.1 36.7-38.1c20.2 0 35.2 14.4 36.6 35v6.2c-1.4 20.6-16.4 35-36.6 35z"/><path d="m1019.9 59.3-34.8 81.5-33.8-81.5h-18.6l43.1 101.1-16.6 39.4h17.4l14.3-34.4 47.3-106.1z"/><path d="m754.3 58.2c-15.6 0-29.8 6.7-39.2 18.3v-16.6h-15.7v139.9h16.8v-49.7c9.5 11 23 17.1 38.1 17.1 29.6 0 51.9-23.4 51.9-54.5s-22.3-54.5-51.9-54.5zm-2.6 92.6c-20.2 0-35.2-14.4-36.6-35v-6.2c1.4-20.6 16.4-35 36.6-35 21.2 0 36.7 16 36.7 38.1s-15.4 38.1-36.7 38.1z"/><path d="m264 126.5v-43.8h-22.8v-23h22.8v-27.8l27.9-7.5v35.2h34.8v23h-34.8v43.4c0 11.5 6.2 18.3 16.9 18.3 6.1 0 10.6-1.2 15.3-4.7l10 20.8c-7.4 5.7-17.1 8.4-27.7 8.4-27.1.1-42.4-15.2-42.4-42.3z"/><path d="m335.5 112.8c0-31.9 24.7-55.7 58-55.7s58 23.9 58 55.7c0 31.9-24.7 55.8-58 55.8s-58-23.9-58-55.8zm58 30.9c17 0 29.8-13.2 29.8-30.8s-12.6-30.9-29.8-30.9c-17 0-29.8 13.2-29.8 30.8s12.8 30.9 29.8 30.9z"/><path d="m458.8 140.8 27.7-7.5c1.8 8.6 9.8 13.5 22.7 13.5 10.6 0 18.3-4.8 18.3-11.1 0-4.7-5.4-8-13.7-9.8l-20.7-4.4c-19.6-4.2-31.7-14.6-31.7-29.6 0-20.9 18.1-34.9 44.6-34.9 23.7 0 41.7 10.8 46.5 28.2l-26.1 7.1c-1.7-8.3-9.9-13.8-21.3-13.8-9.6 0-16 4.5-16 10.8 0 4.9 4.4 7.5 11.5 9.1l24.5 5.6c18.5 4.2 29.7 14.5 29.7 29.5 0 21.9-18.3 35.1-48 35.1-26 0-44.1-10.5-48-27.8z"/><path d="m561.6 140.8 27.7-7.5c1.8 8.6 9.8 13.5 22.7 13.5 10.6 0 18.3-4.8 18.3-11.1 0-4.7-5.4-8-13.7-9.8l-20.7-4.4c-19.6-4.2-31.7-14.6-31.7-29.6 0-20.9 18.1-34.9 44.6-34.9 23.7 0 41.7 10.8 46.5 28.2l-26.1 7.1c-1.7-8.3-9.9-13.8-21.3-13.8-9.6 0-16 4.5-16 10.8 0 4.9 4.4 7.5 11.5 9.1l24.2 5.5c18.5 4.2 29.7 14.5 29.7 29.5 0 21.9-18.3 35.1-48 35.1-25.8.1-43.9-10.4-47.7-27.7z"/><path d="m118.4 45.4 8.9-41.8c.4-2.1-1.4-4-3.5-3.5-12.9 2.3-26.3 6.3-39.6 12-59.8 25.3-95.9 74.9-80.7 110.8 11.5 26.9 48.6 38.4 91.7 31.7l-8.9 41.8c-.4 2.1 1.4 4 3.5 3.5 12.9-2.3 26.3-6.3 39.6-12 59.8-25.3 95.9-74.9 80.7-110.9-11.4-26.8-48.5-38.3-91.7-31.6z"/></g></svg>